<?xml version="1.0" encoding="UTF-8" standalone="no"?>
<svg
   id="Layer_1"
   x="0px"
   y="0px"
   width="107.268"
   height="76.441093"
   viewBox="0 0 107.268 76.441096"
   xml:space="preserve"
   version="1.1"
   sodipodi:docname="OpenTeams_Logo-02.svg"
   inkscape:export-filename="OpenTeams.png"
   inkscape:export-xdpi="500"
   inkscape:export-ydpi="500"
   inkscape:version="1.2 (dc2aeda, 2022-05-15)"
   xmlns:inkscape="http://www.inkscape.org/namespaces/inkscape"
   xmlns:sodipodi="http://sodipodi.sourceforge.net/DTD/sodipodi-0.dtd"
   xmlns="http://www.w3.org/2000/svg"
   xmlns:svg="http://www.w3.org/2000/svg"><defs
   id="defs45">
	
	
	
	
	
	
	
	
	
	
	
	
	
	
	
	
	
</defs><sodipodi:namedview
   id="namedview43"
   pagecolor="#ffffff"
   bordercolor="#666666"
   borderopacity="1.0"
   inkscape:showpageshadow="2"
   inkscape:pageopacity="0.0"
   inkscape:pagecheckerboard="0"
   inkscape:deskcolor="#d1d1d1"
   showgrid="false"
   inkscape:zoom="2.5579595"
   inkscape:cx="19.937767"
   inkscape:cy="32.447739"
   inkscape:window-width="1339"
   inkscape:window-height="816"
   inkscape:window-x="33"
   inkscape:window-y="38"
   inkscape:window-maximized="0"
   inkscape:current-layer="Layer_1" />
<path
   fill="#0a165d"
   d="m 22.745294,62.409068 c -0.27532,0.653404 -0.653405,1.211712 -1.133489,1.676458 -0.48085,0.463979 -1.042226,0.825959 -1.684127,1.085173 -0.642668,0.259215 -1.335952,0.388822 -2.081385,0.388822 -0.745434,0 -1.444086,-0.129607 -2.09749,-0.388822 -0.653405,-0.259214 -1.220149,-0.621194 -1.701,-1.085173 -0.48085,-0.463979 -0.858169,-1.023054 -1.133488,-1.676458 -0.27532,-0.653405 -0.412596,-1.374297 -0.412596,-2.162678 v -0.388821 c 0,-0.788381 0.137276,-1.509273 0.412596,-2.162678 0.275319,-0.653404 0.656472,-1.211713 1.141924,-1.676458 0.486219,-0.464746 1.052963,-0.825959 1.701,-1.085173 0.648036,-0.259215 1.344387,-0.388822 2.089054,-0.388822 0.73393,0 1.42568,0.129607 2.072949,0.388822 0.648036,0.259214 1.211713,0.621194 1.692563,1.085173 0.480851,0.463979 0.858169,1.023054 1.133489,1.676458 0.275319,0.653405 0.413362,1.374297 0.413362,2.162678 v 0.388821 c 0,0.788381 -0.138043,1.509273 -0.413362,2.162678 z m -1.82984,-3.806926 c -0.134976,-0.447874 -0.340507,-0.839763 -0.615059,-1.174134 -0.27532,-0.334372 -0.621195,-0.599721 -1.036858,-0.793749 -0.415664,-0.194027 -0.898815,-0.291424 -1.449454,-0.291424 -0.550639,0 -1.028422,0.0974 -1.433349,0.291424 -0.404927,0.194028 -0.744667,0.459377 -1.020753,0.793749 -0.27532,0.334371 -0.480851,0.72626 -0.615059,1.174134 -0.134976,0.447874 -0.202464,0.931025 -0.202464,1.449454 0,0.518429 0.07286,1.00158 0.218569,1.449454 0.145712,0.447873 0.358912,0.839763 0.6396,1.174134 0.280688,0.334372 0.623495,0.599721 1.028422,0.793749 0.404927,0.194027 0.871973,0.291424 1.401139,0.291424 0.529165,0 0.996212,-0.0974 1.401138,-0.291424 0.404927,-0.194028 0.747735,-0.459377 1.028423,-0.793749 0.280687,-0.334371 0.493888,-0.726261 0.6396,-1.174134 0.145712,-0.447874 0.218568,-0.931025 0.218568,-1.449454 0,-0.517662 -0.06749,-1.000813 -0.202463,-1.449454 z"
   id="path2"
   style="stroke-width:0.766907" /><path
   fill="#0a165d"
   d="m 38.845736,57.26619 c 0.470113,0.194028 0.877341,0.469347 1.223216,0.825959 0.345875,0.356612 0.615826,0.785313 0.809854,1.287637 0.194027,0.502324 0.291424,1.060632 0.291424,1.676458 0,0.0974 -0.0031,0.194027 -0.0084,0.291424 -0.0054,0.0974 -0.0084,0.183291 -0.0084,0.259215 0,0.0974 -0.0054,0.188659 -0.0161,0.27532 h -5.86308 c 0.08666,0.615059 0.302162,1.117383 0.648037,1.506205 0.345875,0.388821 0.831327,0.582849 1.45789,0.582849 0.453242,0 0.823658,-0.07823 1.109714,-0.234674 0.286056,-0.156449 0.509993,-0.412596 0.67181,-0.769207 h 1.911132 c -0.216268,0.863537 -0.658773,1.514641 -1.328283,1.951778 -0.669509,0.437136 -1.479363,0.655705 -2.42956,0.655705 -0.561376,0 -1.087474,-0.102766 -1.579062,-0.30753 C 35.244341,65.061798 34.81564,64.77881 34.448292,64.41683 34.080943,64.05485 33.792586,63.617713 33.581687,63.104652 33.370788,62.591591 33.265721,62.027148 33.265721,61.412089 v -0.258448 c 0,-0.615059 0.105067,-1.179503 0.315966,-1.692563 0.210899,-0.513061 0.499256,-0.953266 0.866605,-1.319847 0.367348,-0.367348 0.793748,-0.653405 1.279967,-0.858936 0.486219,-0.204764 1.00925,-0.307529 1.570625,-0.307529 0.561376,0 1.077505,0.0974 1.546852,0.291424 z m -0.170254,1.822171 c -0.291424,-0.340507 -0.728561,-0.509993 -1.312177,-0.509993 -0.604323,0 -1.066001,0.161817 -1.385034,0.486219 -0.318266,0.323635 -0.536835,0.750802 -0.655705,1.279967 h 3.838368 c -0.03144,-0.497722 -0.19326,-0.916453 -0.485452,-1.256193 z"
   id="path4"
   style="stroke-width:0.766907" /><path
   fill="#0088ff"
   d="m 58.453243,54.788314 v 1.76542 h -2.9802 v 8.762677 h -2.040739 v -8.762677 h -3.109808 v -1.76542 z"
   id="path6"
   style="stroke-width:0.766907" /><path
   fill="#0088ff"
   d="m 63.077691,57.26619 c 0.469347,0.194028 0.877341,0.469347 1.222449,0.825959 0.345875,0.356612 0.615059,0.785313 0.809854,1.287637 0.194027,0.502324 0.291424,1.060632 0.291424,1.676458 0,0.0974 -0.0031,0.194027 -0.0084,0.291424 -0.0054,0.0974 -0.0084,0.183291 -0.0084,0.259215 0,0.0974 -0.0054,0.188659 -0.0161,0.27532 h -5.863002 c 0.08666,0.615059 0.302161,1.117383 0.648036,1.506205 0.345875,0.388821 0.831327,0.582849 1.45789,0.582849 0.453242,0 0.823658,-0.07823 1.109714,-0.234674 0.286056,-0.156449 0.509993,-0.412596 0.67181,-0.769207 h 1.911132 c -0.215501,0.863537 -0.658773,1.514641 -1.328282,1.951778 -0.66951,0.437136 -1.479364,0.655705 -2.429561,0.655705 -0.561376,0 -1.088241,-0.102766 -1.579061,-0.30753 C 59.475529,65.061798 59.046062,64.77881 58.67948,64.41683 58.312899,64.05485 58.023775,63.617713 57.812875,63.104652 57.602743,62.591591 57.49691,62.027148 57.49691,61.412089 v -0.258448 c 0,-0.615059 0.105066,-1.179503 0.315965,-1.692563 0.211667,-0.513061 0.50079,-0.953266 0.867372,-1.319847 0.367348,-0.367348 0.793749,-0.653405 1.279967,-0.858936 0.485452,-0.204764 1.00925,-0.307529 1.570626,-0.307529 0.562142,0 1.077504,0.0974 1.546851,0.291424 z m -0.169487,1.822171 c -0.291424,-0.340507 -0.728561,-0.509993 -1.312177,-0.509993 -0.604323,0 -1.066001,0.161817 -1.385034,0.486219 -0.318266,0.323635 -0.536835,0.750802 -0.655705,1.279967 h 3.838368 c -0.03221,-0.497722 -0.194027,-0.916453 -0.485452,-1.256193 z"
   id="path8"
   style="stroke-width:0.766907" /><path
   fill="#0088ff"
   d="m 88.611854,58.303048 c 0.18329,-0.312898 0.424099,-0.566744 0.720892,-0.761538 0.296793,-0.194794 0.628864,-0.337439 0.996212,-0.429468 0.367348,-0.09203 0.73393,-0.137276 1.101278,-0.137276 0.421032,0 0.815222,0.04601 1.182571,0.137276 0.367348,0.09203 0.688682,0.229305 0.964001,0.413363 0.27532,0.183291 0.499257,0.421032 0.671811,0.712456 0.172554,0.291425 0.269951,0.642668 0.291424,1.052963 v 0.161818 h -1.781524 c -0.02147,-0.378085 -0.14878,-0.642668 -0.380386,-0.793749 -0.232373,-0.151081 -0.547571,-0.227004 -0.94713,-0.227004 -0.777643,0 -1.166465,0.280688 -1.166465,0.842063 0,0.205531 0.06749,0.380386 0.202463,0.526099 0.134976,0.145712 0.321334,0.24541 0.558308,0.29986 0.236975,0.05445 0.493888,0.105066 0.769208,0.154148 0.27532,0.04832 0.55294,0.110435 0.833628,0.186359 0.280688,0.07592 0.550639,0.172554 0.809853,0.291424 0.259215,0.118871 0.486219,0.27532 0.680247,0.469347 0.194027,0.194028 0.351243,0.437137 0.470114,0.728562 0.11887,0.291424 0.177922,0.593586 0.177922,0.907251 v 0.08129 c 0,0.486219 -0.0997,0.896514 -0.299861,1.230885 -0.199395,0.334372 -0.453242,0.60739 -0.761538,0.817523 -0.30753,0.210899 -0.653405,0.36198 -1.036858,0.453242 -0.383454,0.09203 -0.763839,0.138043 -1.141924,0.138043 -0.453242,0 -0.874274,-0.05138 -1.263096,-0.154148 C 89.874182,65.301073 89.534443,65.139256 89.242251,64.91762 88.950826,64.696751 88.718454,64.418363 88.5459,64.083225 88.373346,63.748854 88.275948,63.349295 88.254475,62.88455 v -0.161818 h 1.846712 c 0,0.474716 0.11887,0.817523 0.356611,1.028422 0.237742,0.2109 0.604323,0.315966 1.101279,0.315966 0.421031,0 0.742365,-0.09203 0.964001,-0.275319 0.22087,-0.183291 0.332071,-0.415664 0.332071,-0.696352 0,-0.216268 -0.06749,-0.410295 -0.202463,-0.582849 -0.134976,-0.172554 -0.375018,-0.30753 -0.720893,-0.404927 -0.194027,-0.05368 -0.421032,-0.102765 -0.680246,-0.145712 -0.259215,-0.04295 -0.526098,-0.0974 -0.801418,-0.161817 -0.275319,-0.06442 -0.54527,-0.156449 -0.809853,-0.27532 -0.264583,-0.118871 -0.493888,-0.27532 -0.688683,-0.469347 -0.172554,-0.172554 -0.318266,-0.39419 -0.437137,-0.664141 -0.11887,-0.269952 -0.177922,-0.556008 -0.177922,-0.858169 v -0.0974 c 0,-0.441739 0.09203,-0.819824 0.27532,-1.132722 z"
   id="path10"
   style="stroke-width:0.766907" /><path
   fill="#0a165d"
   d="M 32.244968,59.33914 C 32.028701,58.831447 31.742645,58.401979 31.3868,58.051503 31.030188,57.70026 30.622961,57.430308 30.163583,57.241649 c -0.45861,-0.188659 -0.925656,-0.283755 -1.401138,-0.283755 -0.529166,0 -1.026122,0.08129 -1.4901,0.243109 -0.417965,0.145713 -0.789148,0.415664 -1.119684,0.797583 v -0.780711 h -0.419498 -1.506205 v 2.834488 8.179061 h 1.960213 V 64.65227 h 0.03221 c 0.237741,0.259215 0.539902,0.474715 0.90725,0.648036 0.367349,0.172554 0.868906,0.259215 1.506205,0.259215 0.582849,0 1.115083,-0.105066 1.595167,-0.315966 0.48085,-0.210132 0.895747,-0.502324 1.24699,-0.874274 0.351243,-0.372716 0.621195,-0.815222 0.809854,-1.328282 0.188659,-0.513061 0.283755,-1.071369 0.283755,-1.676459 v -0.307529 c 7.67e-4,-0.638067 -0.107367,-1.210179 -0.323635,-1.717871 z m -1.781524,2.988635 c -0.08666,0.329003 -0.220869,0.615827 -0.404927,0.858169 -0.183291,0.24311 -0.415663,0.434836 -0.696351,0.57518 -0.280688,0.140344 -0.610458,0.2109 -0.987776,0.2109 -0.378085,0 -0.704788,-0.07056 -0.980107,-0.2109 -0.27532,-0.140344 -0.504625,-0.33207 -0.688683,-0.57518 -0.18329,-0.243109 -0.321334,-0.529166 -0.413362,-0.858169 -0.09203,-0.329003 -0.137277,-0.683314 -0.137277,-1.060632 0,-0.378085 0.04602,-0.728561 0.137277,-1.052963 0.09203,-0.324401 0.229305,-0.60739 0.413362,-0.850499 0.183291,-0.24311 0.413363,-0.434837 0.688683,-0.575181 0.275319,-0.140344 0.602022,-0.210899 0.980107,-0.210899 0.378085,0 0.707088,0.07055 0.987776,0.210899 0.280688,0.140344 0.51306,0.332071 0.696351,0.575181 0.183291,0.243109 0.318266,0.526098 0.404927,0.850499 0.08666,0.323635 0.129607,0.674878 0.129607,1.052963 0,0.377318 -0.04295,0.730862 -0.129607,1.060632 z"
   id="path12"
   style="stroke-width:0.766907" /><path
   fill="#0a165d"
   d="m 49.261097,58.699539 c -0.145712,-0.351243 -0.348175,-0.653404 -0.60739,-0.907251 -0.259214,-0.253846 -0.569812,-0.453242 -0.931025,-0.599721 -0.36198,-0.145712 -0.763839,-0.218568 -1.206344,-0.218568 -0.486219,0 -0.934093,0.09433 -1.344388,0.283755 -0.377318,0.173321 -0.710923,0.459378 -1.006182,0.847432 V 57.217875 H 43.74627 42.239298 v 2.834488 5.264048 h 1.960214 V 60.45729 c 0,-0.61506 0.154148,-1.071369 0.461678,-1.368929 0.30753,-0.296793 0.726261,-0.445573 1.255427,-0.445573 0.486218,0 0.877341,0.143412 1.174134,0.429468 0.296793,0.286056 0.445573,0.742366 0.445573,1.368929 v 4.875226 h 1.943342 v -5.458842 c 0,-0.421032 -0.07286,-0.806786 -0.218569,-1.15803 z"
   id="path14"
   style="stroke-width:0.766907" /><path
   fill="#0088ff"
   d="m 86.610994,57.743973 c -0.502324,-0.51306 -1.184871,-0.769207 -2.049175,-0.769207 -0.205531,0 -0.426401,0.02454 -0.664142,0.07286 -0.237741,0.04832 -0.470114,0.12654 -0.696351,0.234673 -0.227004,0.108134 -0.442505,0.245411 -0.648036,0.413363 -0.205531,0.167186 -0.383454,0.369649 -0.534534,0.60739 h -0.03221 C 81.748804,57.903494 81.430538,57.58216 81.03098,57.33905 80.631421,57.095941 80.155939,56.97477 79.6053,56.97477 c -0.410295,0 -0.804485,0.09203 -1.182571,0.275319 -0.343574,0.167186 -0.644968,0.447107 -0.908784,0.82826 v -0.86047 h -0.419498 v 0 h -1.506205 v 0 2.834488 5.264048 h 1.959447 v -4.923542 c 0,-0.593585 0.132675,-1.03379 0.396491,-1.319846 0.263816,-0.286056 0.634232,-0.429468 1.109714,-0.429468 0.421032,0 0.769207,0.124239 1.044527,0.372717 0.275319,0.248478 0.412596,0.664141 0.412596,1.24699 v 5.053149 h 1.944109 v -4.988729 c 0,-0.615826 0.140344,-1.049895 0.421031,-1.303741 0.280688,-0.253846 0.648037,-0.380386 1.101279,-0.380386 0.442505,0 0.793748,0.124239 1.052963,0.372717 0.259214,0.248478 0.388822,0.680246 0.388822,1.296072 v 5.004834 h 1.944875 V 59.77781 c 0,-0.843597 -0.250778,-1.520776 -0.753102,-2.033837 z"
   id="path16"
   style="stroke-width:0.766907" /><g
   id="g22"
   transform="matrix(0.76690683,0,0,0.76690683,-17.70214,51.605651)">
		<g
   id="g20">
			<path
   fill="#0088ff"
   d="m 117.441,7.318 v 0.149 h -0.012 V 9.07 c -0.746,-1.168 -1.827,-1.753 -3.244,-1.753 -1.417,0 -2.585,0.494 -3.505,1.482 -0.92,0.988 -1.38,2.259 -1.38,3.813 0,1.554 0.463,2.831 1.389,3.831 0.926,1.001 2.085,1.501 3.477,1.501 1.392,0 2.48,-0.627 3.263,-1.883 v 1.734 h 0.012 2.511 V 7.467 7.318 Z m -0.832,7.541 c -0.547,0.541 -1.184,0.811 -1.911,0.811 -0.727,0 -1.364,-0.273 -1.911,-0.82 -0.547,-0.547 -0.82,-1.293 -0.82,-2.237 0,-0.944 0.27,-1.684 0.811,-2.219 0.541,-0.534 1.178,-0.802 1.911,-0.802 0.733,0 1.373,0.27 1.92,0.811 0.547,0.541 0.82,1.283 0.82,2.228 0,0.945 -0.274,1.688 -0.82,2.228 z"
   id="path18" />
		</g>
	</g><path
   fill="#0a165d"
   d="m 50.882755,43.228964 c -0.646618,0.0013 -1.267956,-0.258115 -1.720322,-0.721125 -0.943317,-0.964604 -0.940656,-2.507971 0.0067,-3.469914 0.937995,-0.945978 2.466726,-0.952631 3.412704,-0.01331 0.0067,0.0067 0.01463,0.01331 0.02129,0.02129 0.952629,0.968596 0.937994,2.525268 -0.0306,3.477897 -0.451036,0.444384 -1.056409,0.695846 -1.689721,0.70516 z"
   id="path24"
   style="stroke-width:1.33049" /><path
   fill="#0a165d"
   d="m 42.551234,42.006245 c -0.02395,0 -0.04923,-0.0027 -0.07318,-0.0093 -0.191591,-0.008 -0.363224,-0.117084 -0.453697,-0.286055 -0.179616,-0.419104 0.333953,-1.162848 0.553483,-1.478174 l 0.05455,-0.0785 c 0.788979,-1.182804 2.385566,-3.173215 3.62292,-4.619457 1.270617,-1.487486 2.36561,-2.634367 3.025532,-3.3209 l 0.115752,-0.121074 0.198243,-0.207556 0.03193,-0.03326 c 0.21953,-0.260776 0.46567,-0.498933 0.733099,-0.709151 0.147684,-0.11043 0.32863,-0.171633 0.513568,-0.171633 0.188929,0.0013 0.373867,0.06121 0.526874,0.171633 0.206226,0.172964 0.400477,0.360563 0.581423,0.561467 l 0.0067,0.0067 0.375198,0.381849 0.103778,0.10777 c 0.665245,0.694515 1.776203,1.853372 3.037506,3.332875 1.237355,1.448902 2.839263,3.439313 3.622922,4.619457 0.73044,1.071043 0.699833,1.341132 0.59739,1.539376 -0.08515,0.171633 -0.252796,0.286054 -0.443058,0.304682 -0.01595,0.0013 -0.0319,0.0013 -0.04793,0 -0.167638,0 -0.39382,-0.126397 -1.166835,-0.819582 -0.542838,-0.498933 -1.350446,-1.275938 -2.128781,-2.027665 v 0 c -0.473655,-0.453697 -0.919368,-0.883444 -1.294566,-1.240015 -0.566788,-0.597389 -1.210745,-1.11628 -1.915904,-1.542037 -0.363223,-0.172963 -0.754387,-0.276741 -1.156195,-0.304682 -0.129057,-0.01597 -0.259445,-0.02395 -0.389833,-0.02395 -0.05854,0 -0.111761,0 -0.16232,0 h -0.141032 c -0.188929,0 -0.385841,0 -0.694514,0.01863 -0.399147,0.03726 -0.790311,0.139701 -1.156195,0.304682 -0.70915,0.413781 -1.353108,0.934003 -1.907921,1.539375 -0.35391,0.335283 -0.770353,0.738422 -1.212075,1.165508 v 0 c -0.812929,0.78898 -1.656459,1.597917 -2.215265,2.103503 -0.755716,0.703829 -0.98057,0.835547 -1.141559,0.835547 z"
   id="path26"
   style="stroke-width:1.33049" /><path
   fill="#0a165d"
   d="m 63.720642,37.509193 c -0.480306,-0.08781 -0.931347,-0.292707 -1.311863,-0.59872 l -0.0785,-0.05322 C 61.210012,36.102866 59.220924,34.56349 57.599062,33.195747 56.080974,31.915817 54.907483,30.830138 54.05464,30.021201 l -0.192921,-0.180946 -0.0479,-0.04524 c -0.268758,-0.223522 -0.514899,-0.473654 -0.733099,-0.746404 -0.232835,-0.312665 -0.232835,-0.739752 0,-1.052417 0.175625,-0.206226 0.364554,-0.400477 0.566789,-0.580093 l 0.0067,-0.0053 0.401807,-0.388502 0.102448,-0.09713 c 0.709151,-0.673227 1.901268,-1.79749 3.441975,-3.074759 1.482164,-1.249329 3.519145,-2.867204 4.731218,-3.661505 0.879451,-0.590738 1.196107,-0.659923 1.35843,-0.659923 0.07717,0 0.151671,0.01863 0.219527,0.05588 0.174295,0.08515 0.292713,0.254123 0.311334,0.448374 0.01864,0.170303 -0.02792,0.337945 -0.836872,1.226711 -0.359235,0.376529 -0.85152,0.878123 -1.37307,1.408988 -0.709151,0.721124 -1.439584,1.467529 -1.995729,2.056935 -0.609369,0.569449 -1.14023,1.217397 -1.57663,1.927879 -0.178286,0.365884 -0.286056,0.76237 -0.315326,1.168168 -0.02262,0.184938 -0.02927,0.371207 -0.02129,0.557476 0,0.05056 0,0.09579 0,0.143692 0,0.191591 0,0.389833 0.01863,0.701168 0.03992,0.404469 0.146355,0.799623 0.315326,1.168169 0.425757,0.718464 0.956625,1.369073 1.576631,1.927878 0.399144,0.416443 0.890095,0.915377 1.407657,1.444911 0.726445,0.741082 1.478175,1.506113 1.959807,2.023674 0.807607,0.867478 0.878124,1.045764 0.83688,1.22671 -0.05192,0.3273 -0.219535,0.493611 -0.496273,0.493611 z"
   id="path28"
   style="stroke-width:1.33049" /><path
   fill="#0a165d"
   d="m 38.441354,37.509193 c -0.278072,0 -0.441722,-0.167642 -0.489619,-0.496273 -0.01863,-0.171633 0.02794,-0.337943 0.836877,-1.22671 0.482967,-0.51756 1.234694,-1.283922 1.96114,-2.023673 v 0 c 0.51756,-0.526874 1.00585,-1.024477 1.406327,-1.44092 0.609363,-0.569449 1.140229,-1.217397 1.576629,-1.927878 0.176955,-0.365884 0.283395,-0.76237 0.311335,-1.168169 0.02262,-0.184938 0.02927,-0.372537 0.02262,-0.558806 0,-0.04923 0,-0.09579 0,-0.142362 0,-0.19159 0,-0.389833 -0.01996,-0.701168 C 44.010783,27.418766 43.905671,27.02228 43.738029,26.652405 43.312273,25.93394 42.781408,25.283332 42.1614,24.724526 41.762253,24.309414 41.275295,23.813141 40.759064,23.287598 v 0 c -0.729107,-0.742413 -1.482164,-1.510105 -1.965131,-2.027665 -0.811598,-0.867478 -0.880784,-1.047095 -0.84087,-1.228041 0.03326,-0.188929 0.149016,-0.352579 0.315326,-0.448374 0.06786,-0.03726 0.142363,-0.05588 0.219531,-0.05588 0.158328,0 0.477646,0.06918 1.358429,0.659923 1.116281,0.750395 3.105361,2.28711 4.731218,3.661504 1.314524,1.108298 2.388228,2.103504 3.097378,2.759435 0.168973,0.158328 0.315326,0.292707 0.447045,0.413781 l 0.211547,0.200904 0.03326,0.03193 c 0.267429,0.222192 0.510908,0.469663 0.727777,0.742413 0.232836,0.312665 0.232836,0.739751 0,1.052416 -0.176955,0.208887 -0.368545,0.404469 -0.57211,0.585416 l -0.008,0.0067 -0.393825,0.380519 -0.09446,0.08781 c -0.70915,0.673228 -1.90393,1.800151 -3.449957,3.086734 -1.483495,1.25199 -3.521804,2.868534 -4.731219,3.661506 l -0.07052,0.04789 c -0.388502,0.306013 -0.846191,0.5149 -1.33315,0.602711 z"
   id="path30"
   style="stroke-width:1.33049" /><path
   fill="#0a165d"
   d="m 63.014152,31.378301 c -0.646617,0.0013 -1.267957,-0.258115 -1.720325,-0.721126 -0.952629,-0.968595 -0.939323,-2.525267 0.02792,-3.477897 0.452368,-0.444383 1.057741,-0.697177 1.691053,-0.70649 0.646618,-0.0013 1.267958,0.258115 1.720325,0.721125 0.941984,0.961943 0.941984,2.50132 0,3.463262 -0.452367,0.463011 -1.072373,0.722456 -1.718991,0.721126 z"
   id="path32"
   style="stroke-width:1.33049" /><path
   fill="#0a165d"
   d="m 38.751358,31.378301 c -0.646618,0.0013 -1.265295,-0.259446 -1.71633,-0.721126 -0.95263,-0.968595 -0.939325,-2.525267 0.02794,-3.477897 0.452366,-0.444383 1.057739,-0.697177 1.691051,-0.70649 0.646618,-0.0013 1.267957,0.258115 1.720323,0.721125 0.952629,0.968596 0.939325,2.525268 -0.02794,3.477898 -0.452366,0.444383 -1.057738,0.697177 -1.691051,0.70649 z"
   id="path34"
   style="stroke-width:1.33049" /><path
   fill="#0a165d"
   d="m 50.872111,26.472788 c -0.184938,0 -0.364554,-0.05987 -0.513569,-0.171633 -0.203564,-0.170302 -0.393825,-0.35524 -0.57211,-0.552153 v 0 l -0.388502,-0.393824 -0.103779,-0.10777 c -0.665244,-0.694515 -1.776202,-1.85337 -3.038836,-3.334205 -1.237354,-1.450233 -2.837933,-3.439313 -3.62159,-4.623448 l -0.0479,-0.07052 c -0.222192,-0.323308 -0.742413,-1.079026 -0.558806,-1.49813 0.09047,-0.166311 0.263437,-0.27142 0.452367,-0.275411 0.01597,-0.0013 0.03193,-0.0013 0.0479,0 0.168971,0 0.393824,0.126397 1.166838,0.819581 0.542839,0.500264 1.354438,1.27993 2.139426,2.034317 0.473654,0.452366 0.914045,0.879453 1.290574,1.236024 0.564127,0.594728 1.205423,1.109627 1.90526,1.534054 0.363223,0.172963 0.754387,0.276741 1.156195,0.304682 0.129057,0.01597 0.259445,0.02395 0.388503,0.02395 0.05721,0 0.11176,0 0.16365,0 h 0.142362 c 0.188929,0 0.385842,0 0.694515,-0.01863 0.399147,-0.03858 0.78898,-0.143692 1.153534,-0.308673 0.710481,-0.413782 1.354438,-0.931342 1.909251,-1.538046 0.356571,-0.339274 0.779667,-0.746403 1.225381,-1.177481 0.810267,-0.782328 1.645814,-1.591265 2.20728,-2.092859 0.754387,-0.694515 0.983231,-0.826234 1.141559,-0.826234 0.02531,0 0.04924,0.0027 0.07316,0.0093 0.184939,0.0306 0.347255,0.142363 0.443049,0.304682 0.101125,0.200904 0.133051,0.473654 -0.597382,1.539375 -0.784992,1.182805 -2.384239,3.171886 -3.622924,4.619458 -1.261304,1.475511 -2.356296,2.621062 -3.010896,3.304934 l -0.130388,0.13704 -0.227513,0.236827 c -0.220862,0.260776 -0.467002,0.498933 -0.737091,0.709151 -0.153007,0.113091 -0.337945,0.174293 -0.529535,0.175624 z"
   id="path36"
   style="stroke-width:1.33049" /><path
   fill="#0a165d"
   d="m 50.882755,19.115185 c -0.646618,0.0013 -1.267956,-0.258114 -1.720322,-0.721125 -0.95263,-0.968595 -0.939325,-2.525267 0.02794,-3.477897 0.452366,-0.444383 1.057738,-0.697176 1.691051,-0.706489 0.646617,-0.0013 1.267956,0.258114 1.720322,0.721125 0.456358,0.461679 0.711811,1.085678 0.70915,1.734957 0.02262,1.331819 -1.039112,2.429472 -2.370931,2.45209 -0.01863,0 -0.03592,0 -0.05455,0 z"
   id="path38"
   style="stroke-width:1.33049" />
</svg>
